<svg xmlns="http://www.w3.org/2000/svg" width="36" height="36"><g color="#000"><path fill="#fff" style="isolation:auto;mix-blend-mode:normal" d="M5.699 1040.363c3.97-2.292 6.148-6.314 7.634-10.165.05-.128.098-.256.146-.383l8.021-.051.131.347c1.486 3.878 3.668 7.943 7.668 10.252" overflow="visible" transform="translate(0 -1016.362)"/><path fill="#c2e4f8" d="m21.3 1047.458-.801 2.405h-6l-.78-2.34m7.788-9.838a24.802 24.802 0 0 1 10.992 4.678v3h-9.975l-1.022-1h-8.044l-1.022 1H2.5v-3h.006a24.724 24.724 0 0 1 10.886-4.663" overflow="visible" style="isolation:auto;mix-blend-mode:normal" transform="translate(0 -1016.362)"/><path fill="#c2e4f8" style="isolation:auto;mix-blend-mode:normal" d="M17.5 1019.363c-1 0-3 3.3-4 6.6v.4s2-.5 4-.5 4 .5 4 .5v-.4c-1-3.3-3-6.6-4-6.6zm0 8.5c-2 0-4 .5-4 .5v15.875h8v-15.876s-2-.5-4-.5z" overflow="visible" transform="translate(0 -1016.362)"/><path fill="#249fe6" style="line-height:normal;text-indent:0;text-align:start;text-decoration-line:none;text-decoration-style:solid;text-decoration-color:#000;text-transform:none;block-progression:tb;isolation:auto;mix-blend-mode:normal" d="M21.511 1029.257a.5.5 0 0 0-.48.681l.133.35c1.502 3.922 3.733 8.111 7.884 10.508a.5.5 0 1 0 .5-.865c-3.847-2.222-5.982-6.166-7.45-10a43.684 43.684 0 0 1-.13-.342.5.5 0 0 0-.457-.332zm-8.007.05a.5.5 0 0 0-.493.333l-.144.379c-1.468 3.807-3.6 7.707-7.418 9.912a.5.5 0 1 0 .5.865c4.12-2.379 6.347-6.522 7.85-10.418.05-.13.1-.258.148-.387a.5.5 0 0 0-.443-.683z" font-family="sans-serif" font-weight="400" overflow="visible" transform="translate(0 -1016.362)"/><path fill="#fff" style="isolation:auto;mix-blend-mode:normal" d="M13.499 1044.363h8c.554 0 1 .446 1 1v1c0 .554-.446 1-1 1h-8c-.554 0-1-.446-1-1v-1c0-.554.446-1 1-1z" overflow="visible" transform="translate(0 -1016.362)"/><path fill="#249fe6" style="line-height:normal;text-indent:0;text-align:start;text-decoration-line:none;text-decoration-style:solid;text-decoration-color:#000;text-transform:none;block-progression:tb;isolation:auto;mix-blend-mode:normal" d="M13.394 1037.198a.5.5 0 0 0-.084.01 25.233 25.233 0 0 0-10.996 4.694.5.5 0 0 0-.314.462v3a.5.5 0 0 0 .345.475.5.5 0 0 0 .047.014.5.5 0 0 0 .1.012.5.5 0 0 0 .008 0h9.937a.5.5 0 1 0 0-1H3v-2.21a24.229 24.229 0 0 1 10.473-4.46.5.5 0 0 0-.079-.994z" font-family="sans-serif" font-weight="400" overflow="visible" transform="translate(0 -1016.362)"/><path fill="#249fe6" style="line-height:normal;text-indent:0;text-align:start;text-decoration-line:none;text-decoration-style:solid;text-decoration-color:#000;text-transform:none;block-progression:tb;isolation:auto;mix-blend-mode:normal" d="M13.5 1043.862c-.823 0-1.5.678-1.5 1.5v1c0 .823.677 1.5 1.5 1.5h8c.822 0 1.5-.677 1.5-1.5v-1c0-.822-.678-1.5-1.5-1.5h-8zm0 1h8c.285 0 .5.215.5.5v1c0 .286-.215.5-.5.5h-8a.488.488 0 0 1-.5-.5v-1c0-.285.214-.5.5-.5z" font-family="sans-serif" font-weight="400" overflow="visible" transform="translate(0 -1016.362)"/><path fill="#249fe6" style="line-height:normal;text-indent:0;text-align:start;text-decoration-line:none;text-decoration-style:solid;text-decoration-color:#000;text-transform:none;block-progression:tb;isolation:auto;mix-blend-mode:normal" d="M21.306 1046.952a.5.5 0 0 0-.48.348l-.688 2.062H14.86l-.666-1.996a.5.5 0 1 0-.947.317l.78 2.337a.5.5 0 0 0 .474.342h6a.5.5 0 0 0 .472-.342l.803-2.404a.5.5 0 0 0-.469-.664zm.182-9.767a.5.5 0 0 0-.06.994 24.303 24.303 0 0 1 10.572 4.47v2.213h-9.477a.5.5 0 1 0 0 1H32.5a.5.5 0 0 0 .098-.01.5.5 0 0 0 .402-.49v-3h-.002a.5.5 0 0 0-.197-.4 25.304 25.304 0 0 0-11.213-4.774.5.5 0 0 0-.1-.01z" font-family="sans-serif" font-weight="400" overflow="visible" transform="translate(0 -1016.362)"/><path fill="#249fe6" style="line-height:normal;text-indent:0;text-align:start;text-decoration-line:none;text-decoration-style:solid;text-decoration-color:#000;text-transform:none;block-progression:tb;isolation:auto;mix-blend-mode:normal" d="M17.5 1018.862c-.525 0-.887.321-1.27.723-.382.402-.77.942-1.158 1.582-.776 1.28-1.537 2.956-2.05 4.65a.5.5 0 0 0-.022.145v18.275a.5.5 0 1 0 1 0v-18.177c.486-1.589 1.21-3.193 1.927-4.375.363-.598.723-1.09 1.028-1.41.305-.32.57-.413.545-.413-.025 0 .238.092.543.412.305.32.667.813 1.029 1.41.716 1.183 1.441 2.787 1.928 4.376v18.177a.5.5 0 1 0 1 0V1025.963a.5.5 0 0 0-.022-.145c-.513-1.694-1.275-3.37-2.05-4.65-.388-.64-.778-1.18-1.16-1.582-.383-.402-.743-.723-1.268-.723z" font-family="sans-serif" font-weight="400" overflow="visible" transform="translate(0 -1016.362)"/><path fill="#fff" d="M13.499 1026.363s2-.5 4-.5 4 .5 4 .5v2s-2-.5-4-.5-4 .5-4 .5v-1z" overflow="visible" style="isolation:auto;mix-blend-mode:normal" transform="translate(0 -1016.362)"/><path fill="#249fe6" style="line-height:normal;text-indent:0;text-align:start;text-decoration-line:none;text-decoration-style:solid;text-decoration-color:#000;text-transform:none;block-progression:tb;isolation:auto;mix-blend-mode:normal" d="M17.5 1025.362c-2.084 0-4.121.516-4.121.516a.5.5 0 0 0-.38.484v2a.5.5 0 0 0 .622.487s1.962-.487 3.879-.487c1.916 0 3.879.487 3.879.487a.5.5 0 0 0 .62-.487v-2a.5.5 0 0 0-.378-.484s-2.038-.516-4.121-.516zm0 1c1.73 0 3.171.362 3.5.44v.998c-.484-.112-1.731-.438-3.5-.438-1.77 0-3.017.326-3.5.438v-.998c.328-.077 1.77-.44 3.5-.44z" font-family="sans-serif" font-weight="400" overflow="visible" transform="translate(0 -1016.362)"/><path fill="#249fe6" fill-rule="evenodd" style="line-height:normal;text-indent:0;text-align:start;text-decoration-line:none;text-decoration-style:solid;text-decoration-color:#000;text-transform:none;block-progression:tb;isolation:auto;mix-blend-mode:normal" d="M10.992 1041.401a.5.5 0 0 0-.492.508v1.908a.5.5 0 1 0 1 0v-1.908a.5.5 0 0 0-.508-.508z" font-family="sans-serif" font-weight="400" overflow="visible" transform="translate(0 -1016.362)"/><path fill="#249fe6" fill-rule="evenodd" style="line-height:normal;text-indent:0;text-align:start;text-decoration-line:none;text-decoration-style:solid;text-decoration-color:#000;text-transform:none;block-progression:tb;isolation:auto;mix-blend-mode:normal" d="M2.99 1042.362a.5.5 0 1 0 0 1h7.883a.5.5 0 1 0 0-1H2.99zm21.135 0a.5.5 0 1 0 0 1h7.882a.5.5 0 1 0 0-1h-7.882z" font-family="sans-serif" font-weight="400" overflow="visible" transform="translate(0 -1016.362)"/><path fill="#249fe6" fill-rule="evenodd" style="line-height:normal;text-indent:0;text-align:start;text-decoration-line:none;text-decoration-style:solid;text-decoration-color:#000;text-transform:none;block-progression:tb;isolation:auto;mix-blend-mode:normal" d="M23.992 1041.401a.5.5 0 0 0-.494.508v1.908a.5.5 0 1 0 1 0v-1.908a.5.5 0 0 0-.506-.508z" font-family="sans-serif" font-weight="400" overflow="visible" transform="translate(0 -1016.362)"/><path fill="#249fe6" style="isolation:auto;mix-blend-mode:normal" d="M14.999 1037.363h5a.499.499 0 1 1 0 1h-5a.499.499 0 1 1 0-1zm0 2h5a.499.499 0 1 1 0 1h-5a.499.499 0 1 1 0-1zm0 2h5a.499.499 0 1 1 0 1h-5a.499.499 0 1 1 0-1z" overflow="visible" transform="translate(0 -1016.362)"/></g></svg>