<svg xmlns="http://www.w3.org/2000/svg" data-name="Layer 1" viewBox="0 0 32 32"><path fill="#d8d9dc" d="M3.5,19v2.68H5.64a10.576,10.576,0,0,0,1.14,2.75L5.27,25.94l3.79,3.79,1.51-1.51a10.575,10.575,0,0,0,2.75,1.14V31.5h5.36V29.36a10.575,10.575,0,0,0,2.75-1.14l1.51,1.51,3.79-3.79-1.51-1.51a10.576,10.576,0,0,0,1.14-2.75H28.5V19Zm7.09,1H21.41a5.5,5.5,0,0,1-10.82,0Z"/><path fill="#ffdd56" d="M16,2.5h0A13.5,13.5,0,0,1,29.5,16v.5a0,0,0,0,1,0,0H2.5a0,0,0,0,1,0,0V16A13.5,13.5,0,0,1,16,2.5Z"/><rect width="31" height="3" x=".5" y="16.5" fill="#ffdd56" rx="1.5" ry="1.5"/><path fill="#ffdd56" d="M8.5,9.5v-5a2,2,0,0,1,2-2h11a2,2,0,0,1,2,2v5Z"/><path fill="#ffdd56" d="M12.5,14.5l.822-11.506A2.685,2.685,0,0,1,16,.5h0a2.685,2.685,0,0,1,2.678,2.494L19.5,14.5Z"/><path d="M19.65,9.5H18.64l.36,5v.04a.5.5,0,0,0,.5.46h.04a.5.5,0,0,0,.46-.54Zm-7.3,0L12,14.46a.5.5,0,0,0,.46.54.523.523,0,0,0,.54-.46V14.5l.36-5ZM30,16a13.994,13.994,0,0,0-4.1-9.91A15.791,15.791,0,0,0,24,4.52V4.5A2.5,2.5,0,0,0,21.5,2H18.94a3.161,3.161,0,0,0-5.88,0H10.5A2.5,2.5,0,0,0,8,4.5v.02A13.972,13.972,0,0,0,2,16a2,2,0,0,0,0,4H3v1.68a.5.5,0,0,0,.5.5H5.26a10.967,10.967,0,0,0,.9,2.16L4.92,25.59a.483.483,0,0,0,0,.7l3.79,3.79a.483.483,0,0,0,.7,0l1.25-1.24a10.968,10.968,0,0,0,2.16.9V31.5a.5.5,0,0,0,.5.5h5.36a.5.5,0,0,0,.5-.5V29.74a10.968,10.968,0,0,0,2.16-.9l1.25,1.24a.483.483,0,0,0,.7,0l3.79-3.79a.483.483,0,0,0,0-.7l-1.24-1.25a10.967,10.967,0,0,0,.9-2.16H28.5a.5.5,0,0,0,.5-.5V20h1a2,2,0,0,0,0-4Zm0,3H2a1,1,0,0,1,0-2H30a1,1,0,0,1,0,2Zm-2,2.18H26.36a.482.482,0,0,0-.48.38,10.248,10.248,0,0,1-1.09,2.62.487.487,0,0,0,.08.6l1.15,1.16-3.08,3.08-1.16-1.15a.474.474,0,0,0-.6-.08,10.251,10.251,0,0,1-2.62,1.09.483.483,0,0,0-.38.48V31H13.82V29.36a.483.483,0,0,0-.38-.48,10.251,10.251,0,0,1-2.62-1.09.487.487,0,0,0-.6.08L9.06,29.02,5.98,25.94l1.15-1.16a.487.487,0,0,0,.08-.6,10.248,10.248,0,0,1-1.09-2.62.482.482,0,0,0-.48-.38H4V20H9.58a6.5,6.5,0,0,0,12.84,0H28ZM10.59,20H21.41a5.5,5.5,0,0,1-10.82,0ZM8,5.78V9.5a.5.5,0,0,0,1,0V4.45h.01A1.486,1.486,0,0,1,10.5,3h2.32l-.47,6.5L12,14.46a.5.5,0,0,0,.46.54.523.523,0,0,0,.54-.46V14.5l.36-5,.46-6.47a2.079,2.079,0,0,1,.06-.36.844.844,0,0,1,.05-.17,2.178,2.178,0,0,1,4.14,0,.844.844,0,0,1,.05.17,2.079,2.079,0,0,1,.06.36l.46,6.47.36,5v.04a.5.5,0,0,0,.5.46h.04a.5.5,0,0,0,.46-.54L19.65,9.5,19.18,3H21.5a1.486,1.486,0,0,1,1.49,1.45H23V9.5a.5.5,0,0,0,1,0V5.76c.4.32.81.66,1.2,1.04A12.977,12.977,0,0,1,29,16H3A12.95,12.95,0,0,1,8,5.78Z"/><path fill="#fff" d="M21.41,20a5.5,5.5,0,0,1-10.82,0Z"/></svg>