<svg xmlns="http://www.w3.org/2000/svg" width="60" height="60" viewBox="0 0 15.875 15.875"><path fill="none" stroke="#00007c" stroke-linecap="round" stroke-linejoin="round" stroke-width=".529" d="m 1.7595851,0.2719907 c -0.1429,0 -0.25787,0.11496801 -0.25787,0.257866 V 15.346524 c 0,0.142898 0.11497,0.257865 0.25787,0.257865 H 14.062706 c 0.142901,0 0.25787,-0.114967 0.25787,-0.257865 V 5.4215477 L 9.2350951,0.2719907 Z"/><path fill="none" stroke="#00007c" stroke-linecap="round" stroke-linejoin="round" stroke-width=".529" d="M9.2350951.2719907v4.8947911c0 .1556751.12167.2547659.24908.2547659h4.8364009zM8.5649651 9.8532218h4.1424999c.055 0 .0993.04431.0993.09934v1.0240062c0 .05504-.0443.09934-.0993.09934H8.4905551c-.055 0-.0993-.04431-.0993-.09934v-.974393c0-.09672.0618-.1489532.17376-.1489532zM3.4221251 9.8532218h3.38182c.055 0 .0993.04431.0993.09934v1.0240062c0 .05504-.0443.09934-.0993.09934h-3.45623c-.055 0-.0994-.04431-.0994-.09934v-.974393c0-.09672.0618-.1489532.17376-.1489532zM3.4221251 12.432909h3.38182c.055 0 .0993.04431.0993.09934v1.024007c0 .05504-.0443.09934-.0993.09934h-3.45623c-.055 0-.0994-.04431-.0994-.09934v-.974394c0-.09672.0618-.148953.17376-.148953z"/><path fill="none" stroke="#00007c" stroke-dashoffset=".8" stroke-linecap="round" stroke-linejoin="round" stroke-width=".529" d="m 5.4613747,2.4325109 c -0.89049,0 -1.61238,0.72189 -1.61238,1.6123801 7.41e-4,0.49281 0.22678,0.9582298 0.61368,1.2634799 -1.11324,0.3767105 -1.60167,1.9696595 -1.77163,3.1325505 h 5.58677 c -0.16872,-1.16237 -0.701,-2.755711 -1.81298,-3.1339806 0.38473,-0.30588 0.60892,-0.77054 0.60893,-1.2620498 0,-0.8904901 -0.72189,-1.6123801 -1.61239,-1.6123801 z"/><path fill="none" stroke="#00007c" stroke-linecap="round" stroke-linejoin="round" stroke-width=".529" d="M9.4887154 6.883189l3.2187496 0c.055 0 .0993.04431.0993.09934v1.0240062c0 .05504-.0443.09934-.0993.09934l-3.2931596 0c-.055 0-.0993-.04431-.0993-.09934v-.974393c0-.09672.0618-.1489532.17376-.1489532zM9.2218741 12.432909h3.3818199c.055 0 .0993.04431.0993.09934v1.024007c0 .05504-.0443.09934-.0993.09934H9.1474641c-.055 0-.0994-.04431-.0994-.09934v-.974394c0-.09672.0618-.148953.17376-.148953z"/></svg>