<svg width="308" height="308" viewBox="0 0 308 308" fill="none" xmlns="http://www.w3.org/2000/svg">
<g filter="url(#filter0_d_208_12)">
<circle cx="154" cy="150" r="150" fill="#1C1C1C"/>
<circle cx="154" cy="150" r="149.5" stroke="black"/>
</g>
<circle cx="54" cy="92" r="11" fill="#30F3FF"/>
<circle cx="149.5" cy="30.5" r="4.5" fill="#30F3FF"/>
<circle cx="278" cy="173" r="10" fill="#30F3FF"/>
<circle cx="64.5" cy="186.5" r="3.5" fill="#30F3FF"/>
<circle cx="238.5" cy="106.5" r="7.5" fill="#30F3FF"/>
<circle cx="134" cy="252" r="16" fill="#30F3FF"/>
<path d="M190.289 185.76C187.836 187.573 185.383 189.12 182.929 190.4C175.143 194.56 166.876 196.64 158.129 196.64C152.689 196.64 147.463 195.84 142.449 194.24C135.836 192.32 129.809 189.12 124.369 184.64C118.929 180.16 114.503 174.72 111.089 168.32C107.036 160.96 105.009 152.8 105.009 143.84C105.009 141.067 105.116 138.933 105.329 137.44C105.969 131.573 107.463 126.027 109.809 120.8C112.263 115.467 115.409 110.773 119.249 106.72C123.089 102.667 127.463 99.2533 132.369 96.48C137.383 93.7067 142.716 91.7867 148.369 90.72C151.569 90.08 154.876 89.76 158.289 89.76C167.143 89.76 175.569 92 183.569 96.48C189.543 100 194.929 104.533 199.729 110.08L188.689 119.36C183.463 113.6 177.969 109.493 172.209 107.04C167.409 105.227 162.556 104.32 157.649 104.32C151.356 104.32 145.383 105.813 139.729 108.8C132.689 112.533 127.249 118.293 123.409 126.08C120.636 131.413 119.249 137.12 119.249 143.2C119.249 146.613 119.729 150.027 120.689 153.44C122.716 161.76 127.303 168.64 134.449 174.08C137.756 176.64 141.436 178.613 145.489 180C149.543 181.387 153.703 182.08 157.969 182.08C163.623 182.08 168.903 180.96 173.809 178.72C178.823 176.373 183.249 173.12 187.089 168.96V158.24H172.369V143.84H201.329V174.24C198.023 178.933 194.343 182.773 190.289 185.76Z" fill="#30F3FF"/>
<path d="M190.289 185.76L189.696 184.955L189.695 184.956L190.289 185.76ZM182.929 190.4L182.467 189.513L182.458 189.518L182.929 190.4ZM142.449 194.24L142.753 193.287L142.741 193.283L142.728 193.28L142.449 194.24ZM124.369 184.64L125.005 183.868L125.005 183.868L124.369 184.64ZM111.089 168.32L111.972 167.849L111.965 167.838L111.089 168.32ZM105.329 137.44L106.319 137.581L106.322 137.565L106.323 137.548L105.329 137.44ZM109.809 120.8L108.901 120.382L108.897 120.39L109.809 120.8ZM119.249 106.72L119.975 107.408L119.975 107.408L119.249 106.72ZM132.369 96.48L131.885 95.6049L131.877 95.6094L132.369 96.48ZM148.369 90.72L148.555 91.7027L148.565 91.7006L148.369 90.72ZM183.569 96.48L184.077 95.6185L184.068 95.6129L184.058 95.6075L183.569 96.48ZM199.729 110.08L200.373 110.845L201.149 110.193L200.486 109.426L199.729 110.08ZM188.689 119.36L187.949 120.032L188.596 120.745L189.333 120.125L188.689 119.36ZM172.209 107.04L172.601 106.12L172.582 106.112L172.563 106.105L172.209 107.04ZM139.729 108.8L139.262 107.916L139.261 107.917L139.729 108.8ZM123.409 126.08L124.297 126.541L124.302 126.532L124.306 126.522L123.409 126.08ZM120.689 153.44L121.661 153.203L121.657 153.186L121.652 153.169L120.689 153.44ZM134.449 174.08L135.062 173.289L135.055 173.284L134.449 174.08ZM145.489 180L145.166 180.946L145.166 180.946L145.489 180ZM173.809 178.72L174.225 179.63L174.233 179.626L173.809 178.72ZM187.089 168.96L187.824 169.638L188.089 169.351V168.96H187.089ZM187.089 158.24H188.089V157.24H187.089V158.24ZM172.369 158.24H171.369V159.24H172.369V158.24ZM172.369 143.84V142.84H171.369V143.84H172.369ZM201.329 143.84H202.329V142.84H201.329V143.84ZM201.329 174.24L202.147 174.816L202.329 174.557V174.24H201.329ZM189.695 184.956C187.279 186.741 184.87 188.26 182.467 189.513L183.392 191.287C185.896 189.98 188.393 188.405 190.884 186.564L189.695 184.956ZM182.458 189.518C174.815 193.601 166.71 195.64 158.129 195.64V197.64C167.042 197.64 175.47 195.519 183.401 191.282L182.458 189.518ZM158.129 195.64C152.789 195.64 147.665 194.855 142.753 193.287L142.145 195.193C147.26 196.825 152.59 197.64 158.129 197.64V195.64ZM142.728 193.28C136.248 191.398 130.343 188.264 125.005 183.868L123.734 185.412C129.276 189.976 135.424 193.242 142.171 195.2L142.728 193.28ZM125.005 183.868C119.669 179.474 115.325 174.137 111.972 167.849L110.207 168.791C113.68 175.303 118.19 180.846 123.734 185.412L125.005 183.868ZM111.965 167.838C107.999 160.635 106.009 152.643 106.009 143.84H104.009C104.009 152.957 106.073 161.285 110.213 168.802L111.965 167.838ZM106.009 143.84C106.009 141.082 106.116 139.004 106.319 137.581L104.339 137.299C104.116 138.862 104.009 141.052 104.009 143.84H106.009ZM106.323 137.548C106.952 131.783 108.419 126.338 110.722 121.21L108.897 120.39C106.506 125.715 104.986 131.364 104.335 137.332L106.323 137.548ZM110.718 121.218C113.128 115.979 116.214 111.378 119.975 107.408L118.523 106.032C114.604 110.169 111.398 114.955 108.901 120.382L110.718 121.218ZM119.975 107.408C123.746 103.427 128.041 100.075 132.861 97.3506L131.877 95.6094C126.885 98.4313 122.433 101.906 118.523 106.032L119.975 107.408ZM132.853 97.355C137.773 94.6335 143.006 92.7497 148.555 91.7027L148.184 89.7373C142.426 90.8237 136.992 92.7799 131.885 95.605L132.853 97.355ZM148.565 91.7006C151.698 91.0741 154.939 90.76 158.289 90.76V88.76C154.813 88.76 151.441 89.0859 148.173 89.7394L148.565 91.7006ZM158.289 90.76C166.965 90.76 175.225 92.953 183.081 97.3525L184.058 95.6075C175.914 91.047 167.32 88.76 158.289 88.76V90.76ZM183.062 97.3415C188.936 100.803 194.24 105.265 198.973 110.734L200.486 109.426C195.619 103.802 190.149 99.1967 184.077 95.6185L183.062 97.3415ZM199.086 109.315L188.046 118.595L189.333 120.125L200.373 110.845L199.086 109.315ZM189.43 118.688C184.129 112.846 178.522 108.642 172.601 106.12L171.818 107.96C177.417 110.345 182.796 114.354 187.949 120.032L189.43 118.688ZM172.563 106.105C167.655 104.251 162.682 103.32 157.649 103.32V105.32C162.43 105.32 167.164 106.203 171.856 107.975L172.563 106.105ZM157.649 103.32C151.191 103.32 145.057 104.854 139.262 107.916L140.196 109.684C145.708 106.772 151.522 105.32 157.649 105.32V103.32ZM139.261 107.917C132.019 111.757 126.437 117.68 122.513 125.638L124.306 126.522C128.062 118.906 133.36 113.309 140.198 109.683L139.261 107.917ZM122.522 125.619C119.674 131.096 118.249 136.961 118.249 143.2H120.249C120.249 137.279 121.598 131.731 124.297 126.541L122.522 125.619ZM118.249 143.2C118.249 146.708 118.743 150.213 119.727 153.711L121.652 153.169C120.716 149.841 120.249 146.518 120.249 143.2H118.249ZM119.718 153.677C121.802 162.231 126.524 169.304 133.844 174.876L135.055 173.284C128.081 167.976 123.631 161.289 121.661 153.203L119.718 153.677ZM133.837 174.871C137.233 177.5 141.011 179.525 145.166 180.946L145.813 179.054C141.861 177.702 138.279 175.78 135.062 173.289L133.837 174.871ZM145.166 180.946C149.323 182.368 153.592 183.08 157.969 183.08V181.08C153.813 181.08 149.763 180.405 145.813 179.054L145.166 180.946ZM157.969 183.08C163.759 183.08 169.181 181.932 174.225 179.63L173.394 177.81C168.624 179.988 163.486 181.08 157.969 181.08V183.08ZM174.233 179.626C179.367 177.223 183.898 173.891 187.824 169.638L186.355 168.282C182.6 172.349 178.279 175.524 173.385 177.814L174.233 179.626ZM188.089 168.96V158.24H186.089V168.96H188.089ZM187.089 157.24H172.369V159.24H187.089V157.24ZM173.369 158.24V143.84H171.369V158.24H173.369ZM172.369 144.84H201.329V142.84H172.369V144.84ZM200.329 143.84V174.24H202.329V143.84H200.329ZM200.512 173.664C197.259 178.282 193.652 182.04 189.696 184.955L190.883 186.565C195.034 183.506 198.787 179.585 202.147 174.816L200.512 173.664Z" fill="black"/>
<defs>
<filter id="filter0_d_208_12" x="0" y="0" width="308" height="308" filterUnits="userSpaceOnUse" color-interpolation-filters="sRGB">
<feFlood flood-opacity="0" result="BackgroundImageFix"/>
<feColorMatrix in="SourceAlpha" type="matrix" values="0 0 0 0 0 0 0 0 0 0 0 0 0 0 0 0 0 0 127 0" result="hardAlpha"/>
<feOffset dy="4"/>
<feGaussianBlur stdDeviation="2"/>
<feComposite in2="hardAlpha" operator="out"/>
<feColorMatrix type="matrix" values="0 0 0 0 0 0 0 0 0 0 0 0 0 0 0 0 0 0 0.25 0"/>
<feBlend mode="normal" in2="BackgroundImageFix" result="effect1_dropShadow_208_12"/>
<feBlend mode="normal" in="SourceGraphic" in2="effect1_dropShadow_208_12" result="shape"/>
</filter>
</defs>
</svg>
